<?xml version="1.0" standalone="no"?>
<!DOCTYPE svg PUBLIC "-//W3C//DTD SVG 20010904//EN"
 "http://www.w3.org/TR/2001/REC-SVG-20010904/DTD/svg10.dtd">
<svg version="1.0" xmlns="http://www.w3.org/2000/svg"
 width="385.000000pt" height="187.000000pt" viewBox="0 0 385.000000 187.000000"
 preserveAspectRatio="xMidYMid meet">

<g transform="translate(0.000000,187.000000) scale(0.100000,-0.100000)"
fill="#000000" stroke="none">
<path d="M608 1618 l-3 -203 -100 -5 -100 -5 -3 -78 -3 -78 -47 3 -47 3 -3
178 -2 177 -50 0 -50 0 -2 -482 -3 -483 -47 -3 c-61 -4 -62 -6 -56 -215 4
-149 6 -167 30 -219 38 -82 104 -141 186 -167 l67 -21 1500 2 1500 3 198 247
c109 136 196 252 192 258 -4 7 -471 10 -1478 10 l-1473 0 -52 53 -52 53 0 276
0 277 103 3 102 3 3 80 c5 128 8 124 -106 127 l-97 3 -3 203 -2 202 -50 0 -50
0 -2 -202z"/>
<path d="M871 936 c-8 -9 -11 -65 -9 -177 l3 -164 410 0 410 0 3 165 c2 146 1
166 -15 177 -26 20 -786 19 -802 -1z"/>
<path d="M1735 928 c-3 -13 -4 -93 -3 -178 l3 -155 408 -3 407 -2 -2 177 -3
178 -402 3 -403 2 -5 -22z"/>
<path d="M2611 936 c-8 -9 -11 -65 -9 -177 l3 -164 410 0 410 0 3 164 c2 112
-1 168 -9 177 -17 21 -791 21 -808 0z"/>
</g>
</svg>
